HIERARCHY
ROOT Hips
{
    OFFSET 0.000000 0.000000 0.000000
    CHANNELS 6 Xposition Yposition Zposition Zrotation Xrotation Yrotation
    JOINT Spine
    {
        OFFSET -0.000000 8.505030 0.000000
        CHANNELS 3 Zrotation Xrotation Yrotation
        JOINT Spine1
        {
            OFFSET -0.000000 25.070629 0.000000
            CHANNELS 3 Zrotation Xrotation Yrotation
            JOINT Neck
            {
                OFFSET -0.000000 24.967667 2.269788
                CHANNELS 3 Zrotation Xrotation Yrotation
                JOINT Head
                {
                    OFFSET -0.000000 14.520781 -2.074397
                    CHANNELS 3 Zrotation Xrotation Yrotation
                    End Site
                    {
                        OFFSET -0.000000 25.929966 0.000000
                    }
                }
            }
            JOINT LeftShoulder
            {
                OFFSET 4.117346 22.983784 -0.389865
                CHANNELS 3 Zrotation Xrotation Yrotation
                JOINT LeftArm
                {
                    OFFSET 11.957758 0.000000 0.000000
                    CHANNELS 3 Zrotation Xrotation Yrotation
                    JOINT LeftForeArm
                    {
                        OFFSET 31.907600 0.000000 0.000000
                        CHANNELS 3 Zrotation Xrotation Yrotation
                        JOINT LeftHand
                        {
                            OFFSET 28.601147 0.000000 0.000000
                            CHANNELS 3 Zrotation Xrotation Yrotation
                            End Site
                            {
                                OFFSET 15.557981 0.000000 0.000000
                            }
                        }
                    }
                }
            }
            JOINT RightShoulder
            {
                OFFSET -4.061940 22.983784 -0.389865
                CHANNELS 3 Zrotation Xrotation Yrotation
                JOINT RightArm
                {
                    OFFSET -11.957758 0.000000 0.000000
                    CHANNELS 3 Zrotation Xrotation Yrotation
                    JOINT RightForeArm
                    {
                        OFFSET -31.907600 0.000000 0.000000
                        CHANNELS 3 Zrotation Xrotation Yrotation
                        JOINT RightHand
                        {
                            OFFSET -28.601147 0.000000 0.000000
                            CHANNELS 3 Zrotation Xrotation Yrotation
                            End Site
                            {
                                OFFSET -15.557981 0.000000 0.000000
                            }
                        }
                    }
                }
            }
        }
    }
    JOINT LeftUpLeg
    {
        OFFSET 10.371986 0.000000 0.000000
        CHANNELS 3 Zrotation Xrotation Yrotation
        JOINT LeftLeg
        {
            OFFSET -0.000000 -42.486427 0.000000
            CHANNELS 3 Zrotation Xrotation Yrotation
            JOINT LeftFoot
            {
                OFFSET -0.000000 -48.322342 0.000000
                CHANNELS 3 Zrotation Xrotation Yrotation
                JOINT LeftToeBase
                {
                    OFFSET -0.000000 -6.741791 15.557981
                    CHANNELS 3 Zrotation Xrotation Yrotation
                    End Site
                    {
                        OFFSET -0.000000 0.000000 4.148795
                    }
                }
            }
        }
    }
    JOINT RightUpLeg
    {
        OFFSET -10.371986 0.000000 0.000000
        CHANNELS 3 Zrotation Xrotation Yrotation
        JOINT RightLeg
        {
            OFFSET -0.000000 -42.486427 0.000000
            CHANNELS 3 Zrotation Xrotation Yrotation
            JOINT RightFoot
            {
                OFFSET -0.000000 -48.322342 0.000000
                CHANNELS 3 Zrotation Xrotation Yrotation
                JOINT RightToeBase
                {
                    OFFSET -0.000000 -6.741791 15.557981
                    CHANNELS 3 Zrotation Xrotation Yrotation
                    End Site
                    {
                        OFFSET -0.000000 0.000000 4.148795
                    }
                }
            }
        }
    }
}
MOTION
Frames:    8
Frame Time:    0.008333
-8.226161    99.241302    70.260696    0.490053    -1.696658    90.028259    0.561323    -6.107373    0.328984    1.781582    -6.278871    0.396802    1.276875    33.149738    -3.589643    -1.458767    3.861424    -3.681514    14.156310    0.263604    -14.172291    -4.703224    -0.432547    -3.824026    -5.955050    -2.751099    31.962761    -2.487693    -0.989704    -2.546752    -15.800554    3.665842    -7.391278    11.822758    0.790591    22.251934    5.301986    2.105929    -23.052776    0.262928    3.176247    -4.607073    5.040114    3.743821    3.952367    -2.098127    4.077048    4.828490    -4.250166    -5.748136    8.280804    0.000000    0.000000    0.000000    0.654470    4.139111    3.858134    2.580300    1.467764    -2.920457    2.399276    -2.908550    -14.019708    0.000000    0.000000    0.000000    
-8.205528    99.241302    70.267708    0.523911    -1.714782    90.129776    0.549659    -6.109062    0.290472    1.807238    -6.270457    0.360122    1.186078    33.138477    -3.635005    -1.355743    3.984355    -3.731466    14.137114    0.257012    -14.212836    -4.740726    -0.315272    -3.859739    -5.907467    -2.846233    31.935453    -2.281975    -1.103615    -2.598131    -15.795435    3.652577    -7.390308    11.882910    0.741558    22.246685    5.340711    2.109555    -23.048069    -0.027335    3.199236    -4.601103    5.077317    3.778985    3.917284    -2.110533    4.060750    4.813456    -4.266123    -5.736930    8.246759    0.000000    0.000000    0.000000    0.695551    4.177854    3.784179    2.566473    1.503300    -2.841565    2.381695    -2.926474    -14.130200    0.000000    0.000000    0.000000    
-8.189557    99.242661    70.264236    0.544297    -1.712648    90.200081    0.547286    -6.105873    0.268428    1.787308    -6.295735    0.337544    1.180772    33.157646    -3.689784    -1.318497    4.090783    -3.783900    14.151765    0.279580    -14.259072    -4.777672    -0.266255    -3.894371    -5.859151    -2.944915    31.909954    -1.837576    -1.227778    -2.599914    -15.736640    3.696988    -7.368581    11.898911    0.739536    22.231846    5.402674    2.197369    -23.073071    -0.044262    3.301501    -4.522314    5.079366    3.790801    3.896813    -2.064057    4.092330    4.666659    -4.315999    -5.752673    8.251965    0.000000    0.000000    0.000000    0.701445    4.188485    3.752122    2.565346    1.542167    -2.903698    2.385187    -2.940089    -14.115920    0.000000    0.000000    0.000000    
-8.175025    99.241028    70.255867    0.552814    -1.691405    90.283134    0.513246    -6.125570    0.243493    1.797065    -6.287374    0.314903    1.136973    33.151649    -3.741565    -1.257498    4.188955    -3.837624    14.143398    0.293019    -14.295518    -4.812651    -0.212429    -3.933911    -5.758312    -3.056863    31.869772    -1.729768    -1.373067    -2.613820    -15.750063    3.699894    -7.386970    11.968775    0.797590    22.240538    5.395914    2.103650    -23.041996    -0.277258    3.214006    -4.454706    5.056821    3.798756    3.872012    -2.102821    4.051520    4.761801    -4.265334    -5.708729    8.201429    0.000000    0.000000    0.000000    0.683493    4.182292    3.698044    2.567270    1.605250    -2.806113    2.353360    -2.996887    -14.244094    0.000000    0.000000    0.000000    
-8.159646    99.240646    70.247696    0.564651    -1.690362    90.348946    0.522150    -6.142902    0.215171    1.778127    -6.281084    0.284667    1.092073    33.157043    -3.780359    -1.213586    4.277817    -3.879918    14.130817    0.296888    -14.315822    -4.841882    -0.141256    -3.955761    -5.655756    -3.148470    31.814775    -1.662761    -1.499198    -2.570253    -15.729629    3.693103    -7.372663    12.001774    0.847441    22.250448    5.437138    2.178929    -23.069862    -0.202245    3.296320    -4.587876    5.057245    3.806755    3.838820    -2.106145    4.055812    4.743833    -4.263803    -5.715977    8.193466    0.000000    0.000000    0.000000    0.686216    4.183105    3.682340    2.567673    1.651680    -2.807057    2.371684    -3.026219    -14.305142    0.000000    0.000000    0.000000    
-8.139291    99.240852    70.241386    0.583146    -1.693181    90.423874    0.519436    -6.156535    0.185888    1.783273    -6.272164    0.255829    1.029517    33.153996    -3.863398    -1.180491    4.402456    -3.972144    14.109488    0.303484    -14.326307    -4.879364    -0.061854    -3.991288    -5.508737    -3.266116    31.776733    -1.604024    -1.662419    -2.563420    -15.761096    3.653529    -7.367651    12.083010    1.117037    22.278820    5.349334    2.079215    -23.125229    -0.254735    3.183501    -4.559145    5.061182    3.831702    3.847753    -2.104771    4.035674    4.719409    -4.256573    -5.705784    8.142860    0.000000    0.000000    0.000000    0.700661    4.200446    3.638152    2.555925    1.692338    -2.789294    2.374528    -3.061321    -14.361141    0.000000    0.000000    0.000000    
-8.122036    99.240891    70.228127    0.596658    -1.677977    90.479408    0.510555    -6.161491    0.167713    1.768144    -6.282600    0.237757    1.020879    33.222668    -3.979575    -1.195745    4.400448    -4.095396    14.113435    0.306373    -14.347442    -4.926730    -0.025883    -4.017985    -5.394641    -3.349438    31.696434    -1.507941    -1.787204    -2.368018    -15.738122    3.666067    -7.356996    12.126493    1.100021    22.259140    5.391961    2.085356    -23.139221    -0.294275    3.200267    -4.432189    5.039855    3.842899    3.863799    -2.099032    4.042298    4.663709    -4.273855    -5.701916    8.133027    0.000000    0.000000    0.000000    0.683526    4.205987    3.663675    2.563085    1.728735    -2.813640    2.361781    -3.083410    -14.429846    0.000000    0.000000    0.000000    
-8.106645    99.236923    70.211533    0.603628    -1.664364    90.515221    0.516965    -6.173405    0.156847    1.740367    -6.281778    0.224498    0.976059    33.213924    -4.022263    -1.138017    4.494787    -4.140510    14.115289    0.307951    -14.347353    -4.957120    -0.020857    -4.052547    -5.314980    -3.381611    31.637774    -1.695064    -1.843390    -2.213888    -15.703805    3.687746    -7.351612    12.149288    1.070397    22.248306    5.410280    2.061328    -23.137247    -0.251822    3.178153    -4.354169    5.011295    3.852109    3.867749    -2.082075    4.043061    4.650279    -4.252914    -5.705889    8.102343    0.000000    0.000000    0.000000    0.658136    4.210987    3.779080    2.578089    1.757217    -2.857342    2.322036    -3.127126    -14.530056    0.000000    0.000000    0.000000    
